<svg xmlns="http://www.w3.org/2000/svg" viewBox="0 0 512 512">
  <!-- Mosaic app icon — terracotta rounded-square with the ✦ sparkle mark
       used as the brand glyph throughout the app (Onboarding "✦ Mosaic",
       SidebarNav, Evening "Commit ✦", Highlights). Ink-on-terracotta
       matches the FAB's "+" treatment (docs/07 Buttons: text-on-accent
       uses the darkest shade of the accent's own family, not white/black). -->
  <rect width="512" height="512" rx="115" fill="#C1633D"/>
  <g transform="translate(106,106) scale(12.5)">
    <path fill="#3D1F12" d="M9.937 15.5A2 2 0 0 0 8.5 14.063l-6.135-1.582a.5.5 0 0 1 0-.962L8.5 9.936A2 2 0 0 0 9.937 8.5l1.582-6.135a.5.5 0 0 1 .963 0L14.063 8.5A2 2 0 0 0 15.5 9.937l6.135 1.582a.5.5 0 0 1 0 .963L15.5 14.063a2 2 0 0 0-1.437 1.437l-1.582 6.135a.5.5 0 0 1-.963 0z"/>
  </g>
</svg>
